<svg>
    <defs>
        <svg id="layer_1" enable-background="new 0 0 512 512" height="512" viewBox="0 0 512 512" width="512" xmlns="http://www.w3.org/2000/svg"><g><g><path clip-rule="evenodd" d="m65.582 218.402c65.679-108.173 315.015-108.088 380.779-.028 5.386 26.25 12.246 23.301 12.246 41.727l35.348-11.055c-34.923-193.981-441.044-194.179-475.939 0l28.913 17.547c2.609 1.587 1.617-34.755 18.653-48.191z" fill="#e0dfe1" fill-rule="evenodd"/></g><g><path clip-rule="evenodd" d="m7.5 256.699v37.504c0 4.224 3.43 7.654 7.654 7.654h27.326l26.52-22.876-26.69-29.936h-24.293-2.863c-4.224 0-7.654 3.43-7.654 7.654z" fill="#7e707d" fill-rule="evenodd"/></g><g><path clip-rule="evenodd" d="m65.582 218.402c-15.874 6.52-23.273 12.501-23.273 29.311v1.332 27.355 19.106c0 2.126.057 4.252.17 6.35 3.26 65.142 56.296 107.238 115.824 106.614 47.594-.482 61.03-11.679 75.969-30.275 5.584-6.945 13.663-10.403 21.713-10.375 8.079-.028 16.129 3.43 21.713 10.375 14.939 18.596 28.403 29.793 75.969 30.275 59.528.624 112.592-41.472 115.852-106.614.085-2.098.142-4.224.142-6.35v-19.106-27.355-1.332c0-16.838-7.398-22.791-23.301-29.339h-.028c-6.803-2.806-15.165-5.726-25.172-9.638-85.21-28.177-245.141-28.177-330.351 0-8.361 3.259-16.921 6.236-25.227 9.666z" fill="#a1d4ff" fill-rule="evenodd"/></g><g><path clip-rule="evenodd" d="m72.329 248.11v47.397c0 48.871 37.588 83.483 85.663 82.973 13.408-.142 34.101-.539 44.844-10.148 2.948-2.636 5.584-5.84 8.05-8.929 11.027-13.692 27.524-21.601 45.099-21.601s34.101 7.909 45.099 21.601c2.466 3.09 5.131 6.293 8.079 8.929 10.743 9.61 31.436 10.007 44.816 10.148 48.076.51 85.692-34.102 85.692-82.973v-47.397c-6.803-3.543-22.394-8.788-28.545-11.112-79.342-25.938-230.939-25.938-310.253 0-6.151 2.324-21.77 7.568-28.544 11.112z" fill="#eff6ff" fill-rule="evenodd"/></g><g><path clip-rule="evenodd" d="m469.662 249.045-9.662 26.406s9.605 24.308 9.52 26.406h27.326c4.195 0 7.654-3.43 7.654-7.654v-37.504c0-4.224-3.458-7.654-7.654-7.654h-2.891z" fill="#7e707d" fill-rule="evenodd"/></g><g><path clip-rule="evenodd" d="m72.329 295.506c0 48.871 37.588 83.483 85.663 82.973 13.408-.142 34.101-.539 44.844-10.148 2.948-2.636 5.584-5.84 8.05-8.929 11.027-13.692 27.524-21.601 45.099-21.601s34.101 7.909 45.099 21.601c2.466 3.09 5.131 6.293 8.079 8.929 10.743 9.61 31.436 10.007 44.816 10.148 48.076.51 85.692-34.102 85.692-82.973v-35.689-11.707c-6.803-3.543-22.394-8.788-28.545-11.112 2.268 51.167 7.682 106.501-57.147 105.821-53.405-.567-37.644-40.678-97.994-40.678s-44.589 40.111-97.994 40.678c-48.076.51-85.663-34.102-85.663-83.001v35.688z" fill="#d9eeff" fill-rule="evenodd"/></g><g><path clip-rule="evenodd" d="m439.671 295.506c0 47.595-35.66 81.669-81.95 82.944-9.638 10.233-20.58 19.588-32.655 27.922 7.937 1.276 17.291 1.984 28.602 2.098 59.528.624 112.592-41.472 115.852-106.614.085-2.098.142-4.224.142-6.35v-19.106-19.758-7.597-1.332c0-16.838-7.398-22.791-23.301-29.339h-.028c-6.803-2.806-15.165-5.726-25.172-9.638-10.29-3.402-21.685-6.406-33.874-8.986 5.386 10.8 9.553 22.111 12.359 33.818 3.969 1.077 7.795 2.239 11.48 3.43 6.151 2.324 21.742 7.569 28.545 11.112v11.707z" fill="#86beec" fill-rule="evenodd"/></g><g><path d="m443.136 241.458c-4.52-2.354-9.353-4.142-14.119-5.926-5.155-1.93-10.328-3.951-15.559-5.663-34.449-11.271-83.462-18.228-138.01-19.588-4.167-.108-7.582 3.169-7.685 7.311-.104 4.141 3.169 7.582 7.311 7.685 53.045 1.324 100.47 8 133.564 18.799 7.84 2.95 15.819 5.543 23.533 8.823v42.608c0 20.854-7.653 39.91-21.548 53.659-14.242 14.091-33.953 21.819-55.596 21.819-.322 0-.645-.001-.967-.005-10.853-.115-31.052-.329-39.896-8.24-2.509-2.244-4.951-5.179-7.231-8.035-12.458-15.509-31.027-24.404-50.946-24.404-19.887 0-38.455 8.892-50.962 24.422-2.241 2.809-4.643 5.741-7.188 8.018-8.843 7.911-29.061 8.124-39.923 8.239-21.985.225-42.09-7.509-56.536-21.801-13.896-13.749-21.548-32.81-21.548-53.672v-42.613c7.713-3.283 15.694-5.869 23.534-8.819 33.752-11.01 82.17-17.705 136.37-18.855 4.141-.087 7.427-3.516 7.339-7.657s-3.491-7.394-7.658-7.339c-55.718 1.183-105.748 8.159-140.872 19.646-5.187 1.69-10.316 3.699-15.427 5.609-4.739 1.771-9.566 3.534-14.059 5.88-2.537 1.325-4.227 3.848-4.227 6.752v47.396c0 24.899 9.233 47.747 25.998 64.334 17.314 17.131 41.192 26.399 67.245 26.138 13.733-.145 36.719-.388 49.764-12.057 3.412-3.051 6.39-6.68 8.893-9.816 9.625-11.951 23.934-18.805 39.258-18.805 15.35 0 29.656 6.852 39.237 18.779 2.673 3.349 5.607 6.859 8.94 9.84 13.046 11.67 36.014 11.913 49.737 12.058.378.004.753.006 1.13.006 25.617 0 49.071-9.266 66.143-26.157 16.765-16.588 25.998-39.431 25.998-64.321v-47.396c-.002-2.797-1.557-5.361-4.037-6.652z"/><path d="m500.071 241.899c-10.402-47.105-42.527-85.755-93.274-112.034-40.567-21.007-92.139-33.011-145.215-33.8-52.875-.787-105.124 9.572-147.1 29.167-3.753 1.752-5.376 6.215-3.624 9.968 1.752 3.754 6.216 5.376 9.968 3.624 82.477-38.5 199.843-36.666 279.073 4.361 32.048 16.596 71.835 46.924 84.673 98.361h-7.763c-1.861-15.801-11.188-22.959-25.366-29.141-16.564-25.99-44.308-47.334-80.418-61.817-33.898-13.596-73.708-20.78-115.144-20.78-.061 0-.126 0-.187 0-41.426.021-81.205 7.226-115.038 20.834-36.005 14.481-63.665 35.813-80.173 61.783-14.153 6.178-23.463 13.337-25.322 29.122h-7.781c8.481-34.201 29.628-62.955 62.989-85.564 3.429-2.324 4.325-6.987 2.001-10.416s-6.987-4.325-10.416-2.001c-37.273 25.26-61.385 59.167-70.055 98.342-6.795 1.493-11.899 7.553-11.899 14.791v37.503c0 8.356 6.798 15.154 15.154 15.154h20.398c2.948 27.553 14.688 52.555 33.809 71.475 22.62 22.381 54.498 35.146 87.649 35.146.456 0 .914-.002 1.369-.007 47.297-.479 64.042-11.047 81.738-33.075 3.873-4.817 9.617-7.575 15.821-7.575h.146c6.152 0 11.897 2.758 15.768 7.573 17.697 22.029 34.442 32.598 81.736 33.077 33.646.346 66.092-12.451 89.022-35.139 19.121-18.919 30.861-43.922 33.809-71.475h20.427c8.355 0 15.153-6.798 15.153-15.154v-37.503c.001-7.249-5.118-13.317-11.928-14.8zm-465.261 52.457h-19.656c-.082 0-.154-.072-.154-.154v-37.503c0-.082.072-.154.154-.154h19.656zm220.893-149.549h.179c39.54 0 77.422 6.812 109.561 19.702 23.804 9.548 43.552 22.193 58.305 37.189-.077-.028-.154-.058-.232-.083-41.342-13.671-102.405-21.512-167.53-21.512s-126.188 7.841-167.53 21.512c-.127.042-.254.087-.379.136-.009.004-.018.007-.027.01 34.722-35.578 96.181-56.917 167.653-56.954zm206.426 153.506c-.644 28.198-11.007 52.994-30.069 71.855-20.102 19.89-48.63 31.125-78.316 30.803-45.258-.458-56.712-10.685-70.2-27.475-6.737-8.379-16.738-13.176-27.407-13.176-.042 0-.084 0-.125 0-10.768.003-20.822 4.764-27.586 13.178-13.487 16.788-24.941 27.014-70.202 27.473-29.678.311-58.21-10.913-78.313-30.803-18.308-18.115-28.586-41.705-29.942-68.524-.002-.064.003-.128-.001-.192-.105-1.954-.159-52.407-.159-52.407v-1.333c0-15.056 5.412-17.601 30.978-27.147 3.767-1.407 8.03-2.999 12.567-4.772 83.679-27.595 241.584-27.595 325.263 0 4.537 1.773 8.8 3.365 12.567 4.772 25.566 9.546 30.978 12.092 30.978 27.147 0 .001-.031 50.52-.033 50.601zm34.871-4.11c0 .073-.091.154-.153.154h-19.685v-37.811h19.685c.062 0 .153.081.153.154z"/></g></g></svg>
        <svg id="layer_2" enable-background="new 0 0 512 512" height="512" viewBox="0 0 512 512" width="512" xmlns="http://www.w3.org/2000/svg"><g><g><path clip-rule="evenodd" d="m15.26 339.139 159.405 159.434 5.956 5.927 28.033-28.033-55.063-114.164-118.058-58.957-28.033 28.033z" fill="#d9eeff" fill-rule="evenodd"/></g><g><path clip-rule="evenodd" d="m369.233 145.401 107.234 63.253 28.033-28.033-5.927-5.956-159.434-159.405-7.76-7.76-28.033 28.032z" fill="#d9eeff" fill-rule="evenodd"/></g><g><path clip-rule="evenodd" d="m48.819 316.632 44.125 44.125 267.813-267.813-44.125-44.125c-29.207 26.401-88.794 77.999-123.871 93.834-25.055 11.31-38.77 24.997-50.109 50.109-15.834 35.076-67.433 94.664-93.833 123.87z" fill="#a1d4ff" fill-rule="evenodd"/></g><g><path clip-rule="evenodd" d="m155.137 422.95 38.255 38.255c38.828-32.127 103.827-92.688 139.476-128.337s96.21-100.648 128.337-139.476l-38.255-38.255z" fill="#a1d4ff" fill-rule="evenodd"/></g><g><path clip-rule="evenodd" d="m107.445 285.823h378.746v21.989h-378.746z" fill="#86beec" fill-rule="evenodd" transform="matrix(.707 -.707 .707 .707 -122.946 296.818)"/></g><g><path clip-rule="evenodd" d="m85.241 353.055 38.57 38.57.229.229 267.814-267.814-38.799-38.799z" fill="#a1d4ff" fill-rule="evenodd"/></g><g><path clip-rule="evenodd" d="m116.166 383.979 38.971 38.971 267.814-267.813-31.097-31.097z" fill="#a1d4ff" fill-rule="evenodd"/></g><g><path clip-rule="evenodd" d="m45.252 223.63h378.746v21.989h-378.746z" fill="#86beec" fill-rule="evenodd" transform="matrix(.707 -.707 .707 .707 -97.185 234.625)"/></g><g><path clip-rule="evenodd" d="m76.348 254.727h378.746v21.989h-378.746z" fill="#86beec" fill-rule="evenodd" transform="matrix(.707 -.707 .707 .707 -110.065 265.721)"/></g><g><path clip-rule="evenodd" d="m62.105 329.918 15.434 15.434c26.401-29.207 77.741-87.992 93.576-123.069 11.339-25.112 25.055-38.799 50.109-50.109 35.077-15.835 106.06-80.147 124.128-94.635l-15.434-15.434c-29.207 26.401-88.794 77.999-123.871 93.834-25.055 11.31-38.77 24.997-50.109 50.109-15.834 35.076-67.432 94.664-93.833 123.87z" fill="#86beec" fill-rule="evenodd"/></g><g><path clip-rule="evenodd" d="m35.533 303.346 26.572 26.572c26.401-29.207 77.999-88.794 93.834-123.871 11.339-25.112 25.055-38.799 50.109-50.109 35.077-15.835 94.664-67.433 123.871-93.834l-26.572-26.572c-38.885 38.885-76.166 68.636-113.162 85.358-19.7 8.877-32.414 18.011-41.433 27.861-9.85 9.02-18.984 21.733-27.861 41.433-16.723 36.996-46.473 74.277-85.358 113.162z" fill="#eff6ff" fill-rule="evenodd"/></g><g><path clip-rule="evenodd" d="m451.871 184.057c-32.127 38.828-92.717 103.827-128.338 139.476-35.649 35.621-100.648 96.21-139.476 128.337l24.597 24.597c49.308-39.715 96.983-81.292 142.082-125.732 44.44-45.099 86.016-92.774 125.732-142.082z" fill="#eff6ff" fill-rule="evenodd"/></g><path d="m509.803 175.318-2.836-2.836c4.571-18.257 2.514-39.081-6.06-60.565-8.372-20.977-22.408-41.612-40.59-59.673-18.021-17.901-38.507-31.661-59.242-39.792-21.21-8.318-41.749-10.22-59.748-5.612l-4.645-4.643c-2.929-2.927-7.677-2.926-10.605.001l-28.033 28.033c-41.354 41.354-77.645 68.774-110.939 83.823-19.314 8.703-33.199 18.047-43.66 29.391-11.343 10.461-20.688 24.346-29.387 43.652-15.053 33.303-42.473 69.594-83.827 110.948l-28.034 28.03c-2.929 2.928-2.929 7.676-.001 10.605l4.643 4.645c-4.608 18-2.706 38.539 5.612 59.749 8.131 20.735 21.892 41.22 39.792 59.242 18.062 18.183 38.696 32.219 59.673 40.59 14.066 5.614 27.851 8.44 40.817 8.44 6.839 0 13.445-.8 19.749-2.379l2.835 2.835c1.464 1.464 3.384 2.197 5.303 2.197s3.839-.732 5.303-2.197l27.755-27.755c53.445-43.063 100.004-84.272 142.32-125.971.026-.026.052-.052.078-.078 41.699-42.317 82.908-88.875 125.971-142.32l27.755-27.755c2.93-2.928 2.93-7.677.001-10.605zm-382.074 17.947c7.899-17.531 16.189-29.918 26.088-38.983.162-.148.318-.304.466-.466 9.064-9.899 21.452-18.188 38.991-26.091 33.518-15.15 69.565-41.875 110.048-81.61l15.699 15.699c-27.728 24.778-83.353 72.525-116.059 87.289-26.7 12.053-41.8 27.154-53.859 53.859-14.764 32.705-62.51 88.331-87.289 116.059l-15.699-15.699c39.735-40.483 66.46-76.531 81.614-110.057zm27.408 219.078-20.49-20.49 257.207-257.207 20.49 20.49zm267.813-246.6 18.768 18.768c-32.539 38.661-88.882 99.085-123.486 133.717-34.636 34.608-95.06 90.951-133.721 123.49l-18.768-18.768zm-298.909 215.504-20.49-20.49 257.206-257.207 20.49 20.49zm-31.097-31.096-20.506-20.506c29.106-32.504 75.037-86.619 90.336-120.511 10.515-23.286 23.08-35.851 46.36-46.36 33.892-15.3 88.007-61.231 120.511-90.336l20.506 20.506zm87.677 143.742-74.471-74.471c-2.929-2.929-7.678-2.929-10.606 0-2.929 2.929-2.929 7.678 0 10.606l63.97 63.97c-29.67 2.809-66.134-13.554-96.628-44.253-30.076-30.278-46.008-66.296-43.12-95.487l50.923 50.944c2.928 2.93 7.677 2.93 10.606.002 2.93-2.928 2.931-7.677.002-10.606l-63.191-63.218 17.427-17.427 162.515 162.515zm164.811-148.461c-40.646 40.05-85.262 79.664-136.244 120.962l-14.032-14.032c39.019-32.936 99.122-88.995 133.683-123.528 34.529-34.557 90.588-94.66 123.524-133.678l14.032 14.032c-41.299 50.982-80.913 95.597-120.963 136.244zm148.567-185.919-66.089-66.088c-2.929-2.929-7.678-2.929-10.606 0-2.929 2.929-2.929 7.678 0 10.606l76.59 76.59-17.426 17.426-162.515-162.514 17.427-17.427 59.267 59.24c2.929 2.927 7.678 2.926 10.607-.002 2.928-2.93 2.927-7.678-.002-10.607l-46.992-46.971c29.191-2.887 65.209 13.044 95.486 43.12 30.698 30.493 47.062 66.957 44.253 96.627z"/></g></svg>
        <svg id="layer_3" enable-background="new 0 0 511.996 511.996" height="512" viewBox="0 0 511.996 511.996" width="512" xmlns="http://www.w3.org/2000/svg"><g><g><path clip-rule="evenodd" d="m51.739 93.563c46.21-23.443 127.542-38.326 204.531-38.326 76.96 0 157.777 14.882 203.988 38.326 8.316-6.832 12.86-14.174 12.86-21.856 0-35.463-97.193-64.207-217.133-64.207-119.913 0-217.106 28.744-217.106 64.207 0 7.682 4.544 15.024 12.86 21.856z" fill="#f5a96c" fill-rule="evenodd"/></g><g><path clip-rule="evenodd" d="m87.747 164.035v-38.269c0-3.515 2.915-6.407 6.459-6.407h16.175c-26.091-6.973-46.439-15.818-58.641-25.796-8.316-6.832-12.86-14.174-12.86-21.856v59.133c-.001 12.587 18.317 24.152 48.867 33.195z" fill="#fde588" fill-rule="evenodd"/></g><g><path clip-rule="evenodd" d="m424.249 164.035c30.55-9.043 48.868-20.609 48.868-33.195v-59.133c0 7.682-4.544 15.024-12.86 21.856-12.203 9.978-32.55 18.823-58.641 25.796h16.175c3.544 0 6.459 2.891 6.459 6.407v38.269z" fill="#fde588" fill-rule="evenodd"/></g><g><path clip-rule="evenodd" d="m412.618 468.233c30.235-15.336 32.836-25.173 29.149-60.21l-23.977-227.999h-85.704-152.176-85.705l-23.976 227.999c-3.687 35.208-1.086 44.874 29.149 60.21 48.754 24.747 102.68 36.597 156.606 36.257 53.954.34 107.881-11.51 156.634-36.257z" fill="#eff6ff" fill-rule="evenodd"/></g><g><path clip-rule="evenodd" d="m179.91 180.023h152.176 85.704c3.544 0 6.459-2.891 6.459-6.407v-9.581-38.269c0-3.515-2.915-6.407-6.459-6.407h-16.175-291.235-16.175c-3.544 0-6.459 2.891-6.459 6.407v38.269 9.581c0 3.515 2.915 6.407 6.459 6.407z" fill="#7e707d" fill-rule="evenodd"/></g><g><path clip-rule="evenodd" d="m441.767 408.023-23.977-227.999h-42.867l24.005 227.999c3.658 35.038 1.086 44.874-29.149 60.21-42.295 21.459-88.505 33.223-135.201 35.746 7.116.397 14.26.567 21.405.51 53.955.34 107.881-11.509 156.634-36.257 30.236-15.335 32.837-25.172 29.15-60.209z" fill="#d9eeff" fill-rule="evenodd"/></g><g><path clip-rule="evenodd" d="m417.791 180.023c3.544 0 6.459-2.891 6.459-6.407v-9.581-38.269c0-3.515-2.915-6.407-6.459-6.407-17.632 0-35.265 0-52.869 0 3.515.028 6.401 2.891 6.401 6.407v47.851c0 3.515-2.915 6.407-6.459 6.407h52.927z" fill="#6a5c69" fill-rule="evenodd"/></g><g><path d="m265.074 272.97c-3.353-2.432-8.042-1.687-10.475 1.668l-56.642 78.098c-2.432 3.353-1.685 8.043 1.668 10.475 1.33.965 2.871 1.429 4.397 1.429 2.321 0 4.61-1.074 6.078-3.097l56.642-78.098c2.432-3.354 1.686-8.044-1.668-10.475z"/><path d="m218.858 412.364c1.331.965 2.871 1.43 4.398 1.43 2.321 0 4.61-1.074 6.077-3.096l99.107-136.607c2.433-3.353 1.687-8.042-1.666-10.475-3.354-2.432-8.042-1.687-10.475 1.667l-99.108 136.607c-2.432 3.352-1.686 8.042 1.667 10.474z"/><path d="m121.983 142.191h-6.03c-4.142 0-7.5 3.358-7.5 7.5s3.358 7.5 7.5 7.5h6.03c4.142 0 7.5-3.358 7.5-7.5s-3.358-7.5-7.5-7.5z"/><path d="m390.013 157.191h6.03c4.143 0 7.5-3.358 7.5-7.5s-3.357-7.5-7.5-7.5h-6.03c-4.143 0-7.5 3.358-7.5 7.5s3.357 7.5 7.5 7.5z"/><path d="m255.984 0c-108.883 0-224.605 25.132-224.605 71.707v59.133c0 15.319 16.442 28.334 48.868 38.727v4.05c0 4.677 2.337 8.813 5.9 11.335l-9.089 86.588c-.433 4.119 2.557 7.809 6.676 8.242.266.028.53.042.792.042 3.79 0 7.045-2.864 7.45-6.718l8.983-85.582h310.079l23.27 221.284c3.393 32.247 1.845 39.079-25.085 52.738-46.351 23.528-99.291 35.811-153.287 35.444-53.803.355-106.813-11.916-153.166-35.445-27.197-13.795-28.612-20.045-25.085-52.717l10.917-101.229c.444-4.118-2.534-7.817-6.652-8.261-4.113-.447-7.817 2.534-8.261 6.652l-10.917 101.227c-4.097 37.942-.424 50.643 33.211 67.703 47.822 24.275 102.323 37.077 157.684 37.076.753 0 1.516-.002 2.27-.007.759.004 1.516.007 2.273.007 55.466 0 109.983-12.802 157.801-37.074 14.66-7.436 25.497-14.756 30.733-26.31 4.664-10.289 4.471-22.479 2.482-41.374l-23.375-222.288c3.563-2.522 5.898-6.658 5.898-11.334v-4.05c32.426-10.392 48.868-23.407 48.868-38.727v-59.132c0-46.575-115.736-71.707-224.633-71.707zm-175.737 125.766v27.988c-24.779-8.608-33.868-17.508-33.868-22.914v-31.92c8.504 7.124 20.559 13.643 36.029 19.447-1.361 2.146-2.161 4.679-2.161 7.399zm320.355-13.907h-125.1c-4.143 0-7.5 3.358-7.5 7.5s3.357 7.5 7.5 7.5h141.247v45.664h-321.502v-45.664h15.108c.01 0 .02.002.03.002.008 0 .016-.002.024-.002h130.172c4.142 0 7.5-3.358 7.5-7.5s-3.358-7.5-7.5-7.5h-129.187c-19.707-5.34-34.193-11.233-44.43-17.082 46.144-19.642 118.424-32.041 189.306-32.041 70.579 0 142.653 12.398 188.765 32.04-10.238 5.849-24.724 11.743-44.433 17.083zm65.015 18.981c0 5.406-9.089 14.306-33.868 22.914v-27.988c0-2.72-.8-5.253-2.161-7.399 15.47-5.804 27.525-12.323 36.029-19.447zm-6.681-46.271c-47.479-22.457-126.14-36.832-202.666-36.832-76.845 0-155.717 14.375-203.209 36.832-4.64-4.686-6.682-9.091-6.682-12.862 0-13.146 21.762-27.43 58.212-38.21 40.333-11.928 94.098-18.497 151.393-18.497 57.307 0 111.082 6.569 151.417 18.497 36.453 10.78 58.216 25.064 58.216 38.21 0 3.771-2.041 8.176-6.681 12.862z"/></g></g></svg>
        <svg id="layer_4" enable-background="new 0 0 512 512" height="512" viewBox="0 0 512 512" width="512" xmlns="http://www.w3.org/2000/svg"><g><g><path clip-rule="evenodd" d="m263.605 92.335 110.501-29.195c.85 0 1.672-.142 2.466-.34 3.713-1.077 6.435-4.536 6.435-8.561v-35.832c0-4.904-3.997-8.901-8.901-8.901h-235.39c-4.904 0-8.929 3.997-8.929 8.901v32.316z" fill="#f5a96c" fill-rule="evenodd"/></g><g><path clip-rule="evenodd" d="m16.401 104.356 117.709 37.574 117.709-37.574c.822 0 1.672-.113 2.438-.34 3.713-1.077 6.463-4.507 6.463-8.561v-32.316-3.515c0-4.904-4.025-8.901-8.901-8.901h-122.032-113.386c-4.904 0-8.901 3.997-8.901 8.901v35.831c0 4.734 3.77 8.646 8.447 8.901z" fill="#ffbc85" fill-rule="evenodd"/></g><g><path clip-rule="evenodd" d="m400.549 417.679c-.057-.68.134-1.446-.198-2.013-64.006-109.079-139.631-302.006-146.094-311.65-.765.227-1.587.34-2.438.34h-118.574-116.844c-.142 0-.312 0-.454 0 8.391 55.702 13.55 102.476 16.158 145.45 2.636 43.882 2.608 83.795.567 125.295 35.196 55.145 58.34 65.383 94.252 81.782h274.107v-28.262c0-3.912-.17-7.54-.482-10.942z" fill="#fde588" fill-rule="evenodd"/></g><g><path clip-rule="evenodd" d="m26.606 482.991c0 10.715 8.447 19.503 18.765 19.503h97.342l20.976-15.789 21.288 15.789h46.177l15.846-15.789 15.874 15.789h15.874l15.874-15.789 15.874 15.789h52.923c10.318 0 18.765-8.788 18.765-19.503v-19.701-6.406h-255.26-100.318z" fill="#7e707d" fill-rule="evenodd"/></g><g><path clip-rule="evenodd" d="m32.672 375.101c-1.276 26.193-3.345 52.981-6.066 81.782h100.318c-9.893-42.436-46.006-81.782-94.252-81.782z" fill="#ffbc85" fill-rule="evenodd"/></g><g><path clip-rule="evenodd" d="m382.185 428.621v28.262 6.406h18.879l15.874-15.789 15.874 15.789h52.923c10.318 0 18.765-8.788 18.765-19.503v-26.108h-122.797c.312 3.403.482 7.031.482 10.943z" fill="#7e707d" fill-rule="evenodd"/></g><g><path clip-rule="evenodd" d="m366.254 295.275c-8.135-15.393-11.622-47.255-9.553-90.541 1.871-39.119 8.277-87.565 19.871-141.595-.794.227-1.616.34-2.466.34h-113.386v32.287c0 4.054-2.75 7.484-6.463 8.561-7.795 36.37-13.266 70.245-16.554 100.406-1.616 14.656-2.693 28.404-3.317 41.189-2.069 43.286 1.417 75.149 9.553 90.541 33.194 62.789 128.58.113 137.566 79.202v.028c.085.652.142 1.304.198 1.984h122.797v-30.275c0-98.562-103.408-26.219-138.246-92.127z" fill="#fde588" fill-rule="evenodd"/></g><path clip-rule="evenodd" d="m350.266 502.494h13.153c10.318 0 18.765-8.788 18.765-19.503v-19.701-6.406h-31.918v6.406z" fill="#6a5c69" fill-rule="evenodd"/><path clip-rule="evenodd" d="m466.459 417.679v45.611h19.276c10.318 0 18.765-8.788 18.765-19.503v-26.108z" fill="#6a5c69" fill-rule="evenodd"/><g><path clip-rule="evenodd" d="m202.468 245.752c-2.069 43.315 1.417 93.206 9.553 108.627 33.194 62.846 139.323 25.031 137.566 77.983l.68 24.52h31.918v-28.262c0-3.912-.17-7.54-.482-10.942l-.198-2.013c-8.986-79.146-104.372-16.441-137.566-79.287-8.135-15.421-11.622-47.312-9.553-90.626z" fill="#fdd76f" fill-rule="evenodd"/></g><g><path clip-rule="evenodd" d="m222.253 104.356c-7.739 36.285-13.181 70.075-16.469 100.179-1.616 14.656-2.693 28.432-3.317 41.217h31.918c.624-12.785 1.701-26.561 3.317-41.217 3.288-30.218 8.759-64.093 16.554-100.52-.765.227-1.587.34-2.438.34h-29.565z" fill="#fdd76f" fill-rule="evenodd"/></g><g><path clip-rule="evenodd" d="m338.446 63.479c-11.509 53.803-17.887 102.05-19.758 141.056-.028.057-.028.142-.028.198h38.041c1.871-39.119 8.277-87.565 19.871-141.595-.028 0-.057 0-.085.028-.765.198-1.559.312-2.381.312h-35.66z" fill="#fdd76f" fill-rule="evenodd"/></g><g><path clip-rule="evenodd" d="m318.66 204.734c-2.069 43.286 7.767 95.786 15.902 111.178 34.866 65.908 131.896-.085 131.896 98.507v3.26h38.042v-30.275-.028c-.028-98.535-103.408-26.193-138.246-92.1-6.633-12.53-10.176-36.001-10.148-67.665 0-7.229.198-14.854.595-22.876h-38.041z" fill="#fdd76f" fill-rule="evenodd"/></g><path d="m260.72 55.639h1.732c-.773-.236-1.664-.206-1.732 0z"/><path d="m438.925 320.813c-26.986-1.787-52.477-3.474-66.041-29.158-8.35-15.79-13.801-60.659-4.063-139.236.509-4.11-2.41-7.856-6.521-8.365-4.104-.516-7.856 2.409-8.366 6.521-2.039 16.456-3.484 31.991-4.356 46.46h-103.514c3.145-26.213 7.962-55.626 14.776-87.898 4.441-2.938 7.38-7.971 7.38-13.683v-24.815h99.034c-3.054 14.801-5.797 29.625-8.176 44.187-.667 4.088 2.105 7.943 6.193 8.611.409.067.816.099 1.218.099 3.61 0 6.792-2.613 7.394-6.292 2.654-16.253 5.786-32.835 9.287-49.349 4.418-2.942 7.337-7.963 7.337-13.657v-35.831c0-9.044-7.357-16.401-16.401-16.401h-235.39c-9.059 0-16.429 7.357-16.429 16.401v24.816h-105.887c-9.043 0-16.4 7.358-16.4 16.401v35.831c0 6.471 3.776 12.062 9.232 14.729 21.933 147.727 20.546 232.778 9.913 345.924-.001.007-.001.014-.002.021-.002.017-.003.035-.005.052-.01.104-.008.207-.013.311-.007.13-.02.259-.02.392v26.108c0 14.89 11.782 27.003 26.266 27.003h97.342c1.627 0 3.21-.529 4.511-1.508l16.499-12.419 16.787 12.451c1.292.958 2.858 1.476 4.468 1.476h46.177c1.984 0 3.888-.787 5.294-2.188l10.557-10.519 10.58 10.524c1.405 1.398 3.307 2.183 5.289 2.183h15.874c1.982 0 3.884-.785 5.289-2.183l10.585-10.528 10.585 10.528c1.405 1.398 3.307 2.183 5.289 2.183h52.923c14.482 0 26.266-12.113 26.266-27.003v-12.202h11.379c1.982 0 3.884-.785 5.289-2.183l10.585-10.528 10.585 10.528c1.405 1.398 3.307 2.183 5.289 2.183h52.923c14.483 0 26.266-12.113 26.266-27.003v-26.108-30.303c-.002-61.725-38.824-64.295-73.077-66.563zm-301.638-302.406c0-.76.654-1.401 1.429-1.401h235.39c.76 0 1.401.642 1.401 1.401v35.831c0 .639-.482 1.208-1.088 1.359-.044.009-.086.016-.119.021-.064.01-.128.021-.194.021h-106.396c-1.787-7.121-8.224-12.416-15.89-12.416h-114.533zm-19.859 78.449h-101.028c-.759 0-1.4-.642-1.4-1.401v-35.831c0-.759.642-1.401 1.4-1.401h235.419c.746 0 1.4.655 1.4 1.401v35.831c0 .746-.654 1.401-1.4 1.401h-100.176c-4.143 0-7.5 3.358-7.5 7.5s3.357 7.5 7.5 7.5h93.307c-9.47 46.093-15.384 89.49-17.592 126.396h-97.258c-10.514 0-20.445 0-27.882 5.729-7.608 5.863-10.855 15.913-10.855 33.604 0 3.45-.89 5.439-1.715 5.827-1.345.631-5.418-.16-11.145-4.913l-39.177-32.452c-2.516-39.841-7.214-83.328-14.682-134.192h92.785c4.143 0 7.5-3.358 7.5-7.5s-3.359-7.499-7.501-7.499zm-77.644 286.084c38.147 3.415 66.282 33.914 77.203 66.443h-82.157c2.092-22.974 3.782-44.864 4.954-66.443zm334.901 100.051c0 6.619-5.054 12.003-11.266 12.003h-49.828l-13.68-13.607c-2.926-2.91-7.652-2.91-10.578 0l-13.68 13.607h-9.685l-13.68-13.607c-2.927-2.912-7.658-2.91-10.583.005l-13.65 13.602h-40.601l-19.298-14.313c-2.669-1.98-6.323-1.967-8.979.032l-18.973 14.282h-94.833c-6.212 0-11.266-5.384-11.266-12.003v-18.608h340.579v18.607zm0-33.608h-241.984c-6.009-20.931-17.721-40.216-33.416-54.799-16.961-15.76-37.145-24.865-58.769-26.641 1.43-33.203 1.553-66.085-.072-101.491l28.484 23.594c8.012 6.649 14.649 8.554 19.626 8.554 3.203 0 5.719-.79 7.468-1.611 6.571-3.085 10.34-10.158 10.34-19.404 0-12.019 1.639-19.125 5.011-21.722 3.154-2.43 9.462-2.612 18.727-2.612h96.552c-1.334 39.787 2.142 70.52 10.656 86.63 17.489 33.102 49.81 35.242 78.326 37.13 34.282 2.27 59.052 3.91 59.052 51.609v20.763zm122.315-5.596c0 6.619-5.054 12.003-11.266 12.003h-49.828l-13.68-13.606c-2.926-2.91-7.652-2.91-10.578 0l-13.68 13.606h-8.284v-27.168c0-1.171-.019-2.313-.046-3.442h107.362zm0-33.608h-108.692c-7.183-43.859-41.239-46.118-71.684-48.134-26.988-1.787-52.479-3.475-66.055-29.17-8.653-16.373-12.431-58.396-6.161-120.839h104.455c-1.357 40.243 2.285 70.604 10.759 86.628 17.476 33.089 49.796 35.229 78.312 37.117 34.291 2.27 59.066 3.911 59.066 51.595z"/></g></svg>
        <svg id="layer_5" enable-background="new 0 0 512 512" height="512" viewBox="0 0 512 512" width="512" xmlns="http://www.w3.org/2000/svg"><g><g><path clip-rule="evenodd" d="m215.091 34.344h48.275v91.106h-48.275z" fill="#eff6ff" fill-rule="evenodd"/></g><g><path clip-rule="evenodd" d="m169.847 150.877 69.552 19.814 67.71-19.814.737-26.447c.198-6.888-5.638-12.529-12.55-12.529h-31.929-48.275-31.929c-6.913 0-12.352 5.641-12.55 12.529z" fill="#7e707d" fill-rule="evenodd"/></g><g><path clip-rule="evenodd" d="m307.845 124.43c0-6.888-5.638-12.529-12.55-12.529h-31.929c6.913 0 12.55 5.641 12.55 12.529v26.391h31.929z" fill="#6a5c69" fill-rule="evenodd"/></g><g><path clip-rule="evenodd" d="m263.366 47.894h88.76c9.151 0 10.114-2.721 10.114-10.857v-9.326c0-11.14-9.094-20.211-20.2-20.211h-142.106c-11.106 0-20.2 9.071-20.2 20.211 0 11.112 9.094 20.183 20.2 20.183h15.157z" fill="#a7e9a6" fill-rule="evenodd"/></g><g><path clip-rule="evenodd" d="m362.24 27.711c0-11.14-9.094-20.211-20.2-20.211h-37.793c11.106 0 20.2 9.071 20.2 20.211v9.326c0 8.135-.963 10.857-10.114 10.857h37.793c9.151 0 10.114-2.721 10.114-10.857z" fill="#7fdbae" fill-rule="evenodd"/></g><g><path clip-rule="evenodd" d="m380.457 491.035v-271.22c0-37.956-31.022-68.996-68.957-68.996h-3.655-31.929-105.305-3.655c-37.934.001-68.956 31.041-68.956 68.997v271.22c0 7.398 6.034 13.465 13.457 13.465h255.542c7.395-.001 13.458-6.067 13.458-13.466z" fill="#a7e9a6" fill-rule="evenodd"/></g><g><path clip-rule="evenodd" d="m380.457 219.816c0-37.956-31.022-68.996-68.957-68.996h-3.655-28.274c37.935 0 68.957 31.039 68.957 68.996v271.22c0 7.398-6.034 13.465-13.457 13.465h31.929c7.394 0 13.457-6.066 13.457-13.465z" fill="#7fdbae" fill-rule="evenodd"/></g><g><path clip-rule="evenodd" d="m155.738 310.525v103.493c0 10.687 8.754 19.417 19.406 19.417h131.964c10.681 0 19.406-8.731 19.406-19.417v-103.493c0-10.687-8.726-19.417-19.406-19.417h-131.964c-10.652-.001-19.406 8.73-19.406 19.417zm48.445 62.022v-24.86c0-2.409 1.983-4.365 4.363-4.365h14.222v-14.23c0-2.381 1.955-4.365 4.363-4.365h24.846c2.38 0 4.363 1.984 4.363 4.365v14.23h14.194c2.408 0 4.363 1.956 4.363 4.365v24.86c0 2.381-1.955 4.365-4.363 4.365h-14.194v14.202c0 2.409-1.983 4.365-4.363 4.365h-24.846c-2.408 0-4.363-1.956-4.363-4.365v-14.202h-14.222c-2.38 0-4.363-1.984-4.363-4.365z" fill="#eff6ff" fill-rule="evenodd"/></g><g><path clip-rule="evenodd" d="m222.768 376.912v14.202c0 2.409 1.955 4.365 4.363 4.365h24.846c2.38 0 4.363-1.956 4.363-4.365v-14.202h14.194c2.408 0 4.363-1.984 4.363-4.365v-24.86c0-2.409-1.955-4.365-4.363-4.365h-14.194v-14.23c0-2.381-1.983-4.365-4.363-4.365h-24.846c-2.408 0-4.363 1.984-4.363 4.365v14.23h-14.222c-2.38 0-4.363 1.956-4.363 4.365v24.86c0 2.381 1.983 4.365 4.363 4.365z" fill="#fe8d94" fill-rule="evenodd"/></g><g><path clip-rule="evenodd" d="m341.502 173.923c0 18.17 10.624 29.367 23.769 33.619 3.995 1.304 8.244 1.956 12.494 1.956 18.103 0 36.235-11.849 36.235-35.575 0-18.255-23.458-50.145-33.289-64.942-2.323-3.487-3.57-3.487-5.893 0-6.771 10.176-19.973 28.432-27.566 44.788-3.455 7.426-5.75 14.456-5.75 20.154z" fill="#eff6ff" fill-rule="evenodd"/></g><g><path clip-rule="evenodd" d="m377.765 209.497c18.103 0 36.235-11.849 36.235-35.575 0-18.255-23.458-50.145-33.289-64.942-2.323-3.487-3.57-3.487-5.893 0-2.465 3.685-5.751 8.419-9.292 13.748 10.029 15.336 20.88 34.073 20.88 46.488 0 20.438-13.429 32.06-28.756 34.895 2.408 1.417 4.958 2.58 7.621 3.43 3.995 1.305 8.245 1.956 12.494 1.956z" fill="#d9eeff" fill-rule="evenodd"/></g><g><path clip-rule="evenodd" d="m297.023 310.525v103.493c0 10.687-8.726 19.417-19.406 19.417h29.492c10.681 0 19.406-8.731 19.406-19.417v-103.493c0-10.687-8.726-19.417-19.406-19.417h-29.492c10.68-.001 19.406 8.73 19.406 19.417z" fill="#d9eeff" fill-rule="evenodd"/></g><g><path clip-rule="evenodd" d="m263.366 66.036v-18.142h-48.275v18.142h22.693c9.094 0 7.111 6.633 7.111 16.299v29.565h18.472v-45.864z" fill="#d9eeff" fill-rule="evenodd"/></g><g><path d="m227.131 402.979h24.846c6.541 0 11.863-5.323 11.863-11.865v-6.702h6.694c6.541 0 11.863-5.323 11.863-11.865v-24.86c0-6.543-5.322-11.866-11.863-11.866h-6.694v-6.729c0-6.543-5.322-11.866-11.863-11.866h-24.846c-6.541 0-11.863 5.323-11.863 11.866v6.729h-6.722c-6.542 0-11.863 5.323-11.863 11.866v24.86c0 6.542 5.322 11.865 11.863 11.865h6.722v6.702c0 6.542 5.322 11.865 11.863 11.865zm-15.448-33.567v-18.591h11.085c4.142 0 7.5-3.358 7.5-7.5v-11.095h18.572v11.095c0 4.142 3.358 7.5 7.5 7.5h11.057v18.591h-11.057c-4.142 0-7.5 3.358-7.5 7.5v11.067h-18.572v-11.067c0-4.142-3.358-7.5-7.5-7.5z"/><path d="m204.353 245.202h73.575c4.142 0 7.5-3.358 7.5-7.5s-3.358-7.5-7.5-7.5h-73.575c-4.142 0-7.5 3.358-7.5 7.5s3.358 7.5 7.5 7.5z"/><path d="m204.353 212.292h73.575c4.142 0 7.5-3.358 7.5-7.5s-3.358-7.5-7.5-7.5h-73.575c-4.142 0-7.5 3.358-7.5 7.5s3.358 7.5 7.5 7.5z"/><path d="m148.238 310.524v103.493c0 14.842 12.07 26.917 26.907 26.917h47.255c4.142 0 7.5-3.358 7.5-7.5s-3.358-7.5-7.5-7.5h-47.255c-6.565 0-11.907-5.346-11.907-11.917v-103.493c0-6.571 5.341-11.917 11.907-11.917h131.964c6.565 0 11.907 5.346 11.907 11.917v103.493c0 6.571-5.341 11.917-11.907 11.917h-50.967c-4.142 0-7.5 3.358-7.5 7.5s3.358 7.5 7.5 7.5h50.967c14.836 0 26.907-12.075 26.907-26.917v-103.493c0-14.842-12.07-26.917-26.907-26.917h-131.964c-14.837 0-26.907 12.075-26.907 26.917z"/><path d="m421.5 173.922c0-16.905-15.023-40.383-30.411-62.982-1.536-2.254-2.935-4.31-4.131-6.11-.002-.003-.004-.006-.006-.009-1.085-1.629-3.969-5.956-9.188-5.956s-8.102 4.327-9.193 5.964c-1.205 1.814-2.618 3.888-4.168 6.164-8.826 12.955-17.525 26.197-23.343 38.323-8.152-3.436-16.872-5.438-25.715-5.889v-18.997c0-11.044-8.995-20.029-20.051-20.029h-24.428v-49.007h81.26c15.48 0 17.614-8.823 17.614-18.357v-9.326c0-15.28-12.427-27.711-27.7-27.711h-142.106c-15.273 0-27.7 12.431-27.7 27.711 0 15.265 12.426 27.683 27.7 27.683h7.657v49.006h-24.428c-11.056 0-20.051 8.985-20.051 20.029v18.988c-40.379 2.011-72.611 35.508-72.611 76.397v114.548c0 4.142 3.358 7.5 7.5 7.5s7.5-3.358 7.5-7.5v-114.547c0-33.909 27.569-61.495 61.457-61.495h144.542c8.293 0 16.524 1.712 24.126 4.98-1.041 3.754-1.624 7.315-1.624 10.622 0 26.156 18.835 40.767 38.871 42.815.049 1.023.083 2.049.083 3.078v271.22c0 3.233-2.728 5.965-5.957 5.965h-255.542c-3.285 0-5.957-2.676-5.957-5.965v-122.06c0-4.142-3.358-7.5-7.5-7.5s-7.5 3.358-7.5 7.5v122.06c0 11.56 9.401 20.965 20.957 20.965h255.543c11.556 0 20.957-9.405 20.957-20.965v-271.22c0-1.299-.044-2.595-.108-3.889 17.965-3.862 33.651-18.126 33.651-42.004zm-221.566-133.528c-7.002 0-12.7-5.689-12.7-12.683 0-7.009 5.697-12.711 12.7-12.711h142.106c7.002 0 12.7 5.702 12.7 12.711v9.326c0 1.571-.047 2.586-.106 3.242-.546.063-1.35.115-2.507.115zm55.932 15v49.006h-33.276v-49.006zm44.479 87.926h-122.234v-18.89c0-2.773 2.266-5.029 5.051-5.029h112.132c2.785 0 5.051 2.256 5.051 5.029zm77.42 58.678c-14.317 0-28.763-8.681-28.763-28.075 0-13.679 18.083-40.223 27.798-54.484.328-.481.649-.953.964-1.416.303.445.611.898.926 1.36 9.719 14.273 27.81 40.842 27.81 54.54 0 19.393-14.432 28.075-28.735 28.075z"/></g></g></svg>
    </defs>
</svg>